<svg xmlns="http://www.w3.org/2000/svg" width="368" height="112" fill="none"><path fill="#fff" d="M57.24 51.141c.85 6.056-5.89 13.761-8.287 16.195-3.503 3.56-7.168 6.472-11.106 8.728-5.931 3.397-10.065 4.87-14.98 6.998-1.322.536-1.834 3.113-2.52 3.209-3.77.53-10.064 1.765-12.524.42-.514-.126-.38-.937-.373-1.2.24-1.082 4.164-4.256 5.493-4.442.5-.071 1.213.144 1.816.18 1.5.096 2.954-.02 4.352-.13.282-.022.61-.229 1.543-.523 1.457-.459 3.958-1.1 6.19-1.976 2.538-.998 6.546-3.01 9.098-4.483 5.065-2.926 15.94-10.105 16.667-17.374.393-3.927-2.782-6.95-6.157-8.572-2.983-1.329-5.682-1.882-9.328-2.534-2.724-.488-6.761-.856-8.1-.843-.9.134-1.466.7-1.585 1.155-.052 1.289-.012 4.75-.196 11.038-.12 4.124-.77 12.343-1.108 13.673-.131.515.41 1.814.238 2.937-.232 1.514-2.993 2.986-4.564 4.836-.283.334-.614 1.018-1.128 1.09-.4.057-.454-.203-.771-.8-.228-.43-.407-1.177-.628-1.566-.419-.734-1.3-1.082-1.629-1.573-.136-.204-.107-.523-.021-.758.223-.611 1.484-1.951 2.463-3.201.497-.635 1.014-1.254 1.097-1.727.425-2.4.368-4.68.407-7.048.093-5.407-.09-10.35-.615-16.11-.077-.847-.909-2.028-1.276-2.326-.647-.524-3.268-.23-4.006.097-2.303 1.023-3.992 1.843-4.908 1.972-.51.072-3.441-.545-5.88-.804-2.21-.235-3.631-.213-3.755-.306-.525-.396-.52-.767-.677-1.399-.286-1.137-.515-2.699-.478-2.966.02-.146.015-.45.178-.704.49-.76 1.745-1.78 2.365-1.926.217-.051.707-.216 1.502-.094.595.092 2.579.535 3.984.773 2.642.45 5.354.759 7.385 1.358.489.235.681.37 1.271.346.766-.03 1.933-.272 2.514-.354.343-.048.96-.485.932-.83-.018-.218.085-.7.043-.938-.282-1.592-1.053-4.17-1.294-5.061-.095-.35.006-1.185.323-1.655 1.439-1.564 3.124-2.972 4.576-3.695.335-.105.609.048.75.361 1.361 3.03 1.378 7.298 2.098 10.367.145.62 1.229 1.283 1.963 1.53 8.468.557 12.23.664 20.366 2.73 6.646 1.689 7.895 5.183 8.28 7.925Zm7.817 7.191c-.643-.466-1.358-.003-2.202-.352-1.012-.417-.63-1.214-1.756-1.123-2.429.195-2.987.623-3.562 1.572-.382.63-.405 1.195-.578 1.981-.16.728-.372 1.454-.369 2.275.007 1.385 1.838 1.828 1.601 3.745-.403 3.262-6.125 6.762-10.476 8.537-2.634 1.074-4.38 1.394-4.545 1.727 0 0-1.35 1.44-.756 1.871.148.583 4.794-1.336 9.136-3.724 2.562-1.409 6.357-4.117 7.139-3.89 1.64.397 1.864 4.971 4.047 6.192 3.172 1.775 10.484-2.187 14.083-5.122 2.134-1.74 3.521-3.283 5.028-5.045 1.187-1.39 3.643-4.652 3.11-4.699-.247-.18-3.153.28-4.027 1.952-1.22 2.332-3.28 5.295-6.664 7.715-1.036.74-2.662 1.759-4.134 1.837-2.91.154-4.066-3.343-4.445-5.736-.317-2-.257-5.599-.298-7.833-.02-1.009-.06-1.681-.332-1.88ZM85.08 75.388c.863-1.188 1.384-2.322 1.168-3.69-.505-.97-1.801-2.518-3.06-1.617-.901.644-1.413 1.494-2.04 2.338-.686.925-1.59 1.797-2.043 2.864-.478 1.127 1.009 1.944 2.089 2.123 1.422.125 3.023-.83 3.886-2.018Zm93.621-34.206c1.02-1.056 1.694-2.107 1.67-3.49-.364-1.033-1.433-2.745-2.805-2.029-.982.513-1.607 1.283-2.345 2.032-.809.82-1.825 1.559-2.422 2.552-.631 1.05.728 2.065 1.773 2.392 1.39.322 3.108-.4 4.129-1.457Zm-68.295-9.778c.255 3.533 1.938 6.816 3.62 10.098 3.671 8.3 9.454 16.585 10.533 24.269.441 3.14-.619 6.74-3.485 8.398-1.336.773-4.906.865-6.486.25-.407-.16-.596-.254-1.032-1.16-.309-.643-.214-1.14-.617-1.413-1.149-.782-5.67-.342-8.42-2.9-2.242-2.085-3.608-3.803-4.705-6.864-.543-1.516-1.364-1.997-1.779-1.745-1.208.734-2.697 1.599-3.827 2.285-1.068.725-.688 2.151-.553 2.603 3.168 5.973 10.843 10.122 17.208 11.013.573.037 1.236.23 1.741-.038.381-.203.327-.512 1.039-.362 1.623.34 3.968.339 6.024-.257 4.159-1.45 8.195-3.592 9.662-7.788.877-3.376.978-6.352-.003-9.93-.515-1.879-1.463-4.127-2.004-5.105-3.854-9.342-9.912-16.057-10.974-26.249-.143-4.985 1.172-10.048 3.709-14.432 2.833-4.794 8.827-8.764 14.613-8.392 1.904.121 3.757.531 5.289 1.304 1.2.605 1.949 1.085 3.328 2.186.642.514 1.685 3.72 3.278 3.985 1.042.174 3.478-.613 5.081-1.432 1.248-.638-.025-3.121-.603-4.457-.932-2.162-1.404-4.316-2.403-4.766-1.475-.664-7.339 2.189-10.287 1.635-7.185-1.35-13.975 2.106-19.428 6.647-6.278 6.116-9.129 14.17-8.519 22.617Zm43.34 19.197c.53-.614 1.405-1.315 2.261-1.76 1.601-.954 2.884-.304 3.442 1.01.667 1.997.157 4.178-.733 5.01-.255.26-1.153.811-1.603.964-3.227 1.257-7.013 2.375-7.28 1.43-.107-.375-.196-1.249.41-2.174.598-.912 1.235-1.92 1.807-2.707.643-.886 1.02-.992 1.696-1.773ZM131.934 62.27c-.084.3.432.592.7.546.568-.097 1.149-.49 2.299-.977.531-.227 1.024-1.05 1.585-.777.475.231.706.819.743 1.372.483 7.261.678 15.62 3.119 20.796.29.174.368.392.96.255.631-.287.62-.626 1.259-1.175.921-.79 2.456-1.568 2.574-2.28.112-.674-.482-3.24-.48-4.973.003-4.496.52-9.552 2.436-12.827.918-1.57 2.304.308 3.674.513.852.128 2.419-.111 3.382-.492 1.751-.694 3.653-1.687 5.449-2.66.599-.324 1.111-.803 1.717-1.06.688-.293 2.996-.213 4.094-.56 4.406-1.414 4.401-2.785 6.562-3.08.714-.2 1.217.363 1.607 1.849.995 3.785 3.937 4.873 6.766 4.274 4.874-1.036 7.537-6.627 9.467-8.553.282-.282.889-.036 1.392.217 1.191.6 1.707 3.585 4.893 3.782 1.026.062 2.285-.537 3.795-1.479 1.037-.645 2.135-.906 2.047-1.462-.033-.214-.261-.265-.396-.288-2.106-.017-3.636-.826-4.645-2.769-1.171-2.969-2.079-6.768-1.145-9.72.458-1.808 1.529-3.351 2.148-5.245 1.34-4.096 2.544-10.135 3.111-13.547.269-1.621.144-3.79-.65-4.936-.499-.72-3.676-.25-5.509 2.276-1.328 1.827-2.37 7.186-3.439 10.926-1.325 4.635-.141 12.114-1.884 16.595-.751 2.108-2.465 4.07-3.884 6.18-1.421 2.112-2.688 3.673-3.591 3.328-2.121-.672-1.996-5.686-2.147-7.066-.074-.397-.279-.61-.466-.581-.261-.265-1.432.535-2.154.779-1.85.623-3.234 1.106-4.921 2.4-.61.469-1.205.957-1.783 1.464-1.359.6-3.021 1.674-4.71 1.91-.899.126-2.27.053-2.397-.748-.245-1.542 1.702-3.084 1.488-7.475-.089-1.828-1.87-2.683-2.269-2.707-4.509-.278-9.205 2.378-12.958 5.513-2.873 2.4-3.335 5.566-5.075 8.69-.793 1.422-1.872.957-1.905-.136-.096-3.166.174-8.159-.008-10.557-.054-.707.265-1.925-.354-1.96-1.129-.214-2.171.097-3.113.538-.471.22-1.295.867-1.689 1.231-.256.237-.563.48-.845.747-.165.156-.512.797-.634.977-.581 2.065-3.783 11.37-4.216 12.932Zm70.334-11.172c-.218.402-.439.751-.385.964.053.212.488.12.871-.11.76-.458 1.971-1.876 2.832-1.275.351.243 1.01.55 1.357.785 1.444.974 2.044 1.566 2.969 1.801 4.61 1.173 6.637.362 10.187-1.428l.709-.359s.369-.392-.254-.39c-.622.003-2.384.147-3.263-.034-2.31-.064-7.431-2.766-7.629-6.22.012-1.943-.225-2.935.443-4.484 1.673-1.743 2.704-6.3 3.276-12.172.124-2.647.318-4.85-.178-6.889-.085-.54-.304-.885-.599-1.085-.478-.325-1.704.2-2.351.704-.567.407-.714.577-1.062.887-.997.773-1.46 2.778-1.471 2.81-.667 1.925-1.604 4.58-2.033 6.43-.825 3.566-.866 8.242-1.409 12.073-.236 1.663-.324 4.409-.324 4.409-.264 1.221-1.137 2.564-1.686 3.583Zm31.392-9.267c.319-.86.678-1.328.344-2.966-.149-.506-.477-.931-1.089-.853-.441.056-.795.415-1.465 1.327-.467.643-.74.792-1.008 1.433-.294.844-.351.94-.484 1.69-.101 1.036-.029.827.154 1.257.31.517 1.151.518 1.727.032 1.257-1.035 1.596-1.417 1.821-1.92Zm32.003 2.302c-.719.99-2.185 1.69-3.049 1.768-1.264.115-1.338-.263-2.218-.619-3.006-1.275-5.588 1.855-9.379.563-1.765-.601-3.169-2.454-4.276-2.062-1.305.462-2.367 4.597-7.097 6.457-.716.281-2.062.619-3.088.782-2.279.36-4.196.43-6.014.017-2.16-.36-2.568-1.462-4.578-2.721-.415-.26-1.392-.306-1.869.003-.411.267-.802.676-1.127.997-.348.343-1.012 1.026-1.809 1.189-.09-.005-.215.038-.305-.154-.03-.276.087-.647.568-1.199.864-1.084 1.38-2.115 1.811-3.324.395-1.11.797-1.773 1.048-2.97.266-1.268.505-2.223.937-3.302 1.172-2.932 4-6.459 6.4-6.794 3.116-.713 4.943 1.052 5.333 2.082.519 1.104 1.736 4.661 1.005 7.237-.713 1.979-2.508 2.688-3.317 4.22-.522 1.133 1.057 1.876 2.136 2.055 1.08.18 2.423-.103 3.26-.808 3.504-2.95 4.26-12.03 3.998-12.572-.412-.858-.827-1.076-1.03-1.68-.167-.5-.225-1.802-.141-2.932.145-1.36.364-3.064 2.172-4.193.742-.414 2.719-1.34 3.283-.479.72 1.1 2.059.506 2.436.95.556.602.606 2.591.518 3.754-.143 3.527-.405 5.506.931 9.149.961 2.62 3.545 4.653 6.678 4.55 1.395-.046 2.437-1.124 2.998-2.461.551-1.315 1.04-3.027 1.516-3.336.833-.54 2.137-.849 2.585-.643.189.087 1.185 1.95 1.278 2.169.544 1.275-.035 2.162-1.594 4.307Zm101.754 62.992c0-2.283-1.588-3.179-3.12-3.844-1.387-.607-2.746-1.04-2.746-2.138 0-.954.838-1.416 1.878-1.416 1.792 0 3.238 1.185 3.238 1.185l.461-2.37s-1.358-.868-3.554-.868c-2.543 0-4.537 1.503-4.537 3.7 0 2.167 1.387 3.063 2.832 3.699 1.56.693 3.15 1.098 3.15 2.514 0 1.098-.925 1.647-2.139 1.647-1.82 0-3.728-1.647-3.728-1.647l-.549 2.399s1.763 1.329 4.017 1.329c2.89 0 4.797-1.531 4.797-4.19Zm-11.949 3.959v-9.045c0-2.977-1.677-4.364-4.364-4.364-2.976 0-3.988 2.196-3.988 2.196v-1.907h-2.601v13.12h2.601v-8.149c0-1.879 1.155-3.237 2.976-3.237 1.561 0 2.774.838 2.774 3.237v8.149h2.602Zm-16.888-6.502c0 3.121-1.676 4.682-3.988 4.682-2.312 0-3.786-1.705-3.786-4.769 0-3.063 1.589-4.768 3.901-4.768 2.399 0 3.873 1.734 3.873 4.855Zm2.63-.231c0-4.162-2.572-6.676-6.503-6.676-3.612 0-6.416 2.861-6.416 7.139 0 3.871 2.312 6.502 6.329 6.502 3.815-.001 6.59-3.064 6.59-6.965Zm-18.744 6.733h2.602v-13.12h-2.602v13.12Zm3.006-17.021c0-.954-.694-1.706-1.647-1.706-.954 0-1.676.752-1.676 1.706 0 .953.722 1.705 1.676 1.705.953 0 1.647-.752 1.647-1.705Zm-5.592 5.924v-2.023h-4.046v-4.19h-2.601v4.19h-1.879v2.023h1.879l-.087 7.455c0 2.544 1.098 3.873 3.439 3.873 2.11 0 3.208-1.127 3.208-1.127l-.491-2.023s-.751.924-1.879.924c-.924 0-1.705-.462-1.676-2.745l.087-6.358h4.046Zm-11.233 11.097v-13.12h-2.601v8.149c0 1.878-1.156 3.179-2.976 3.179-1.561 0-2.774-.838-2.774-3.237v-8.091h-2.601v8.987c0 2.976 1.676 4.363 4.363 4.363 3.006 0 3.988-2.138 3.988-2.138v1.907h2.601v.001Zm-17.518 0h2.602V90.277h-2.602v20.807Zm-5.822-6.502c0 3.121-1.677 4.682-3.989 4.682-2.311 0-3.785-1.705-3.785-4.769 0-3.063 1.589-4.768 3.901-4.768 2.399 0 3.873 1.734 3.873 4.855Zm2.629-.231c0-4.162-2.571-6.676-6.502-6.676-3.612 0-6.415 2.861-6.415 7.139 0 3.871 2.312 6.502 6.328 6.502 3.815-.001 6.589-3.064 6.589-6.965Zm-15.422 1.387c0-3.093-2.254-4.537-4.451-5.722-2.138-1.156-4.218-2.08-4.218-3.988 0-1.3 1.011-2.312 2.976-2.312 2.399 0 4.335 1.647 4.335 1.647l.664-2.746s-1.936-1.33-5.029-1.33c-3.583 0-5.866 2.457-5.866 5.03 0 3.294 2.428 4.623 4.711 5.808 2.051 1.07 4.016 2.023 4.016 4.162 0 1.704-1.416 2.658-3.468 2.658-2.687 0-5.115-2.254-5.115-2.254l-.578 3.005s2.312 1.676 5.837 1.676c3.469.001 6.186-2.253 6.186-5.634Zm-24.131-3.093h-6.097c0-.838.75-3.005 3.12-3.005 2.428 0 2.977 1.705 2.977 3.005Zm2.688 1.793c0-5.144-2.11-6.763-5.346-6.763-1.734 0-3.352.607-4.422 1.82-1.098 1.244-1.763 2.891-1.763 4.972 0 4.421 2.341 6.849 6.127 6.849 3.409 0 5.259-2.255 5.259-2.255l-1.069-1.935s-1.416 1.964-3.872 1.964c-1.966 0-3.815-1.502-3.815-4.652h8.901Zm-12.701-6.474s-.52-.29-1.589-.29c-2.283 0-3.41 2.197-3.41 2.197v-1.907h-2.601v13.119h2.601v-7.282c0-2.283 1.127-3.555 2.746-3.555 1.097 0 1.791.492 1.791.492l.462-2.774Zm-13.403 8.352c0 2.196-1.271 3.063-2.542 3.063-1.215 0-2.024-.808-2.024-1.994 0-1.878 1.301-2.399 4.566-2.399v1.33Zm2.399 4.768v-9.364c0-3.467-2.484-4.046-4.363-4.046-2.774 0-4.653 1.677-4.653 1.677l.78 1.907s1.417-1.416 3.324-1.416c1.589 0 2.514.925 2.514 2.515v1.04c-3.294 0-7.138.289-7.138 4.277 0 2.196 1.589 3.641 3.67 3.641 1.734 0 3.063-1.127 3.467-2.138v1.907h2.399Zm-11.585-1.734-1.069-2.11s-1.619 1.619-4.624 1.619c-4.017 0-6.965-3.121-6.965-7.543 0-4.797 2.717-7.687 7.022-7.687 2.544 0 4.364.982 4.364.982l.809-2.485s-1.589-1.011-5.058-1.011c-5.634 0-10.085 3.844-10.085 10.606 0 6.04 4.103 9.739 9.277 9.739 4.103 0 6.329-2.11 6.329-2.11Zm-19.166 1.734v-9.045c0-2.977-1.676-4.364-4.363-4.364-2.977 0-3.988 2.196-3.988 2.196v-1.907h-2.601v13.12h2.601v-8.149c0-1.879 1.155-3.237 2.976-3.237 1.561 0 2.774.838 2.774 3.237v8.149h2.601Zm-17.922 0h2.601v-13.12h-2.601v13.12Zm3.005-17.021c0-.954-.694-1.706-1.647-1.706-.954 0-1.676.752-1.676 1.706 0 .953.722 1.705 1.676 1.705.953 0 1.647-.752 1.647-1.705Zm-5.742 5.086-1.849-1.531-6.358 6.358v-13.67h-2.601v20.778h2.601v-6.675l5.837 7.08 2.197-1.503-5.086-5.808 5.259-5.03Zm-14.344 6.589c0-3.093-2.255-4.537-4.451-5.722-2.138-1.156-4.219-2.08-4.219-3.988 0-1.3 1.012-2.312 2.977-2.312 2.398 0 4.335 1.647 4.335 1.647l.664-2.746s-1.936-1.33-5.028-1.33c-3.584 0-5.866 2.457-5.866 5.03 0 3.294 2.427 4.623 4.71 5.808 2.052 1.07 4.017 2.023 4.017 4.162 0 1.704-1.416 2.658-3.468 2.658-2.688 0-5.115-2.254-5.115-2.254l-.578 3.005s2.312 1.676 5.837 1.676c3.468.001 6.185-2.253 6.185-5.634Zm-24.131-3.093h-6.097c0-.838.751-3.005 3.121-3.005 2.427 0 2.976 1.705 2.976 3.005Zm2.688 1.793c0-5.144-2.11-6.763-5.346-6.763-1.734 0-3.352.607-4.421 1.82-1.099 1.244-1.763 2.891-1.763 4.972 0 4.421 2.341 6.849 6.126 6.849 3.41 0 5.26-2.255 5.26-2.255l-1.07-1.935s-1.416 1.964-3.872 1.964c-1.965 0-3.815-1.502-3.815-4.652h8.901Zm-13.278-6.474s-.52-.29-1.59-.29c-2.283 0-3.41 2.197-3.41 2.197v-1.907h-2.601v13.119h2.601v-7.282c0-2.283 1.127-3.555 2.746-3.555 1.098 0 1.791.492 1.791.492l.463-2.774Zm-11.971 13.12v-13.12h-2.6v8.149c0 1.878-1.157 3.179-2.977 3.179-1.56 0-2.774-.838-2.774-3.237v-8.091h-2.601v8.987c0 2.976 1.676 4.363 4.363 4.363 3.006 0 3.989-2.138 3.989-2.138v1.907h2.6v.001Zm-16.335-14.19c0 2.255-1.532 3.497-3.468 3.497-1.272 0-2.197-.288-2.197-.288v-6.214s.983-.144 2.08-.144c2.082 0 3.585.954 3.585 3.15Zm2.745-.028c0-3.988-2.427-5.549-6.184-5.549-2.37 0-4.913.29-4.913.29v19.477h2.688v-8.525s.838.202 2.312.202c2.773 0 6.097-1.676 6.097-5.895Z"/></svg>