<svg xmlns="http://www.w3.org/2000/svg" width="151" height="150" fill="none"><path d="M42.998 98.304c-.354 0-.708-.109-1.014-.334-11.71-8.671-15.64-31.032-15.8-31.98a1.704 1.704 0 0 1 3.359-.572c.038.218 3.864 21.96 14.47 29.814a1.704 1.704 0 0 1-1.015 3.072ZM89.912 105.827c-3.672 0-6.982-.899-9.576-2.751a1.702 1.702 0 0 1-.396-2.376 1.7 1.7 0 0 1 2.377-.397c5.7 4.07 16.452 2.117 25.567-4.642 8.798-6.52 12.935-22.611 14.108-28.015-5.424-.445-21.595-1.156-30.495 5.048a1.702 1.702 0 0 1-2.372-.424 1.703 1.703 0 0 1 .424-2.372c11.829-8.245 33.772-5.573 34.7-5.456a1.706 1.706 0 0 1 1.465 1.978c-.163.948-4.099 23.309-15.8 31.979-6.556 4.861-13.796 7.428-20.002 7.428Z" fill="#CCA866"/><path d="M62.063 105.347c-6.271 0-13.606-2.578-20.079-7.378-11.708-8.67-15.638-31.03-15.8-31.98a1.703 1.703 0 0 1 1.466-1.976c.903-.115 22.303-2.721 34.227 5.139a1.705 1.705 0 0 1-1.876 2.846c-8.972-5.915-24.751-5.219-30.094-4.781 1.17 5.401 5.302 21.494 14.107 28.013 8.73 6.473 18.96 8.564 24.878 5.09a1.703 1.703 0 1 1 1.726 2.939c-2.398 1.408-5.337 2.088-8.554 2.088Z" fill="#CCA866"/><path d="M49.126 67.903a1.703 1.703 0 0 1-1.662-2.083c1.747-7.671 4.388-13.66 4.499-13.912a1.703 1.703 0 0 1 2.314-.836c.247.122 6.129 3.055 12.4 7.862a1.704 1.704 0 1 1-2.074 2.705c-4.087-3.132-8.076-5.473-10.221-6.653-.892 2.271-2.459 6.598-3.596 11.591a1.704 1.704 0 0 1-1.66 1.326ZM102.171 67.903a1.706 1.706 0 0 1-1.66-1.325 59.923 59.923 0 0 0-3.61-10.86c-2.122 1.166-6.164 3.528-10.306 6.704a1.705 1.705 0 0 1-2.073-2.705c6.27-4.807 12.15-7.743 12.398-7.866a1.705 1.705 0 0 1 2.264.73c.117.222 2.884 5.509 4.652 13.236a1.705 1.705 0 0 1-1.665 2.086Z" fill="#CCA866"/><path d="M75.45 105.201c-9.824 0-17.517-11.918-17.517-27.134 0-14.56 15.622-31.041 16.286-31.736.643-.672 1.82-.672 2.462 0 .665.694 16.286 17.175 16.286 31.736 0 15.216-7.694 27.134-17.517 27.134Zm0-55.15c-3.642 4.16-14.108 17.067-14.108 28.016 0 13.082 6.329 23.725 14.108 23.725 7.78 0 14.108-10.643 14.108-23.725 0-10.962-10.465-23.858-14.107-28.015Z" fill="#CCA866"/><path fill-rule="evenodd" clip-rule="evenodd" d="M75.36 6.963c-37.83.349-68.213 31.3-67.864 69.13.35 37.829 31.3 68.213 69.13 67.864 37.83-.35 68.214-31.3 67.864-69.13-.088-9.592-2.143-18.702-5.778-26.954a1.526 1.526 0 0 1 .74-2 1.475 1.475 0 0 1 1.979.73c3.812 8.633 5.967 18.166 6.059 28.196.365 39.487-31.35 71.793-70.837 72.158-39.486.364-71.792-31.351-72.157-70.837-.364-39.487 31.35-71.793 70.837-72.157 10.43-.097 20.363 2.046 29.339 5.981a1.477 1.477 0 0 1 .736 1.978 1.527 1.527 0 0 1-1.999.744c-8.58-3.752-18.073-5.796-28.048-5.703Z" fill="#CCA866"/><circle cx="123.724" cy="23.563" r="2" transform="rotate(4.471 123.724 23.563)" fill="#CCA866"/></svg>