<svg xmlns="http://www.w3.org/2000/svg" width="151" height="150" fill="none"><path fill-rule="evenodd" clip-rule="evenodd" d="M76.749 6.963c-37.83-.395-68.817 29.95-69.213 67.78-.395 37.83 29.951 68.817 67.78 69.213 37.83.395 68.817-29.951 69.213-67.78.1-9.593-1.775-18.742-5.246-27.063a1.526 1.526 0 0 1 .778-1.986 1.476 1.476 0 0 1 1.965.77c3.641 8.706 5.608 18.28 5.503 28.31-.413 39.486-32.758 71.161-72.244 70.749-39.486-.413-71.161-32.758-70.748-72.244C4.949 35.226 37.294 3.55 76.78 3.963c10.43.11 20.32 2.447 29.215 6.558a1.475 1.475 0 0 1 .697 1.992 1.525 1.525 0 0 1-2.012.705c-8.505-3.92-17.956-6.15-27.931-6.255Z" fill="#CCA866"/><circle cx="125.674" cy="25.605" r="2" transform="rotate(5.6 125.674 25.605)" fill="#CCA866"/><path d="M116.975 79.83 106.28 67.26c.693-2.945 2.611-13.353-2.405-21.906-3.115-5.313-8.29-8.853-15.38-10.521-26.302-6.185-39.244 5.89-42.412 13.138-2.89 6.599-5.562 17.193-3.59 25.332 1.265 5.224 4.018 8.876 6.446 12.098 2.729 3.62 5.085 6.746 5.085 11.413v18.56a1.5 1.5 0 0 0 1.5 1.5h32.628a1.5 1.5 0 0 0 1.5-1.5v-8.523c4.682 1.465 14.596 3.89 16.968-.945l.001-.001c1.357-2.774 2.821-16.67 3.275-21.271l6.462-2.424c.458-.171.803-.555.925-1.028a1.5 1.5 0 0 0-.308-1.351Zm-9.007 2.32a1.498 1.498 0 0 0-.966 1.262c-.685 7.154-2.125 19.226-3.074 21.171-1.16 2.365-9.611.805-15.267-1.229a1.498 1.498 0 0 0-2.01 1.411v9.107H57.025v-17.06c0-5.671-2.764-9.338-5.69-13.22-2.363-3.134-4.807-6.376-5.925-10.997-1.797-7.414.72-17.251 3.422-23.423 5.986-13.696 26.589-14.334 38.978-11.42 6.252 1.472 10.785 4.534 13.47 9.103 1.521 2.588 2.308 5.419 2.667 8.127a1.502 1.502 0 0 0-1.874-.175c-.02.014-2.034 1.345-5.058 2.894a1.5 1.5 0 1 0 1.368 2.669c3.172-1.625 5.262-3.006 5.349-3.064.165-.11.298-.247.404-.4.36 5.61-.921 10.25-.942 10.323a1.503 1.503 0 0 0 .3 1.384l9.814 11.535-5.339 2.003Z" fill="#CCA866"/><path d="M72.699 72.103c-.058-.826-.76-1.464-1.602-1.391a1.5 1.5 0 0 0-1.391 1.602c.227 3.23 1.32 6.909 3.252 10.935a1.5 1.5 0 1 0 2.705-1.297c-1.766-3.684-2.763-6.998-2.964-9.85ZM87.183 61.607c-2.401.637-4.96.938-7.22 1.203-1.206.142-2.346.275-3.404.449a1.5 1.5 0 1 0 .488 2.96c.989-.163 2.095-.292 3.267-.43 2.358-.277 5.03-.59 7.655-1.287l.009-.002a1.496 1.496 0 0 0 1.042-1.837 1.505 1.505 0 0 0-1.837-1.056ZM81.14 91.103a1.5 1.5 0 0 0-2.447 1.734c2.073 2.926 3.68 4.79 3.749 4.868a1.496 1.496 0 0 0 2.115.152 1.5 1.5 0 0 0 .153-2.116c-.016-.017-1.587-1.84-3.57-4.638Z" fill="#CCA866"/></svg>