<svg xmlns="http://www.w3.org/2000/svg" width="151" height="150" fill="none"><g clip-path="url(#a)" fill="#CCA866"><path d="M105.53 64.978c0-16.102-13.1-29.201-29.2-29.201-16.102 0-29.201 13.099-29.201 29.2 0 14.475 10.587 26.519 24.423 28.807v19.202h-9.138a1.445 1.445 0 1 0 0 2.891h27.834a1.445 1.445 0 1 0 0-2.891h-9.141V93.784c13.835-2.289 24.423-14.332 24.423-28.806Zm-55.511 0c0-14.508 11.802-26.31 26.31-26.31 14.507 0 26.309 11.802 26.309 26.31s-11.803 26.311-26.31 26.311c-14.507 0-26.31-11.804-26.31-26.311ZM78.215 94.18v18.806h-3.773V94.18h3.773Z" stroke="#CCA866" stroke-width=".1"/><path d="M99.252 64.978c0-12.641-10.283-22.925-22.923-22.925-12.64 0-22.923 10.284-22.923 22.925S63.69 87.904 76.33 87.904c12.64 0 22.923-10.285 22.923-22.926Zm-42.956 0c0-11.047 8.987-20.034 20.032-20.034 11.046 0 20.032 8.987 20.032 20.034 0 11.047-8.987 20.035-20.032 20.035s-20.032-8.989-20.032-20.035Z" stroke="#CCA866" stroke-width=".1"/><path d="M71.838 51.21c.565.564.565 1.48 0 2.044V51.21Zm0 0a1.445 1.445 0 0 0-2.043 0l-8.403 8.4 10.446-8.4Zm-8.401 10.444 8.401-8.4-10.446 6.357a1.445 1.445 0 1 0 2.045 2.043ZM77.681 53.552a1.447 1.447 0 0 0-2.045 0l-12.12 12.114a1.446 1.446 0 1 0 2.045 2.045l12.12-12.114a1.448 1.448 0 0 0 0-2.045Z" stroke="#CCA866" stroke-width=".1"/><path fill-rule="evenodd" clip-rule="evenodd" d="M69.624 7.258c-37.666 3.529-65.34 36.924-61.812 74.59 3.528 37.667 36.923 65.342 74.59 61.813 37.666-3.528 65.341-36.923 61.813-74.59-.895-9.55-3.709-18.456-8.024-26.373a1.526 1.526 0 0 1 .569-2.055 1.476 1.476 0 0 1 2.034.562c4.524 8.281 7.472 17.6 8.408 27.587 3.682 39.316-25.204 74.173-64.52 77.856-39.317 3.683-74.174-25.203-77.857-64.52C1.142 42.812 30.029 7.954 69.345 4.272c10.385-.973 20.463.327 29.737 3.493a1.476 1.476 0 0 1 .9 1.909 1.526 1.526 0 0 1-1.929.91c-8.865-3.017-18.496-4.256-28.428-3.326Z"/><circle cx="122.237" cy="23.716" r="2" transform="rotate(-.351 122.237 23.716)"/></g><defs><clipPath id="a"><path fill="#fff" transform="translate(.554)" d="M0 0h150v150H0z"/></clipPath></defs></svg>