<svg xmlns="http://www.w3.org/2000/svg" width="150" height="150" fill="none"><g clip-path="url(#a)"><path fill-rule="evenodd" clip-rule="evenodd" d="M83.52 66.38V44.104a5.246 5.246 0 0 0-5.25-5.246h-3.675a5.25 5.25 0 0 0-5.25 5.25v23.93h-3.5v-23.93a8.75 8.75 0 0 1 8.75-8.75h3.674c4.831 0 8.75 3.912 8.75 8.746v22.278h-3.5Zm0 39.949v-23.93h3.5v23.93a8.75 8.75 0 0 1-8.75 8.75h-3.675a8.75 8.75 0 0 1-8.75-8.75v-23.93h3.5v23.93c0 2.9 2.35 5.25 5.25 5.25h3.674c2.9 0 5.25-2.35 5.25-5.25Z" fill="#CCA866"/><path d="M85.27 84.056h22.277a6.997 6.997 0 0 0 6.996-7V73.38a7 7 0 0 0-7-7h-23.93M67.593 84.056H45.322a7 7 0 0 1-7-7V73.38a7 7 0 0 1 7-7h23.93" stroke="#CCA866" stroke-width="3.5"/><path fill-rule="evenodd" clip-rule="evenodd" d="M69.49 7.22C31.801 10.518 3.922 43.742 7.22 81.43c3.298 37.687 36.522 65.566 74.21 62.269 37.687-3.297 65.566-36.522 62.269-74.21-.836-9.556-3.595-18.478-7.862-26.421a1.526 1.526 0 0 1 .582-2.052 1.475 1.475 0 0 1 2.03.574c4.473 8.31 7.364 17.645 8.239 27.638 3.441 39.338-25.659 74.018-64.997 77.46-39.338 3.441-74.018-25.659-77.46-64.997C.79 42.353 29.89 7.673 69.229 4.231c10.391-.908 20.46.454 29.716 3.677a1.475 1.475 0 0 1 .888 1.914 1.526 1.526 0 0 1-1.935.898c-8.846-3.071-18.47-4.37-28.408-3.5Z" fill="#CCA866"/><circle cx="121" cy="22" r="2" fill="#CCA866"/></g><defs><clipPath id="a"><path fill="#fff" d="M0 0h150v150H0z"/></clipPath></defs></svg>